<svg width="87" height="87" viewBox="0 0 87 87" fill="none" xmlns="http://www.w3.org/2000/svg">
<g filter="url(#filter0_d_381:3329)">
<rect x="6" y="4" width="75" height="75" rx="10" fill="url(#paint0_linear_381:3329)"/>
</g>
<path d="M48 22H32C30.9391 22 29.9217 22.4214 29.1716 23.1716C28.4214 23.9217 28 24.9391 28 26V58C28 59.0609 28.4214 60.0783 29.1716 60.8284C29.9217 61.5786 30.9391 62 32 62H56C57.0609 62 58.0783 61.5786 58.8284 60.8284C59.5786 60.0783 60 59.0609 60 58V34L48 22Z" stroke="white" stroke-width="4" stroke-linecap="round" stroke-linejoin="round"/>
<path d="M48 22V34H60" stroke="white" stroke-width="4" stroke-linecap="round" stroke-linejoin="round"/>
<path d="M52 44H36" stroke="white" stroke-width="4" stroke-linecap="round" stroke-linejoin="round"/>
<path d="M52 52H36" stroke="white" stroke-width="4" stroke-linecap="round" stroke-linejoin="round"/>
<path d="M40 36H38H36" stroke="white" stroke-width="4" stroke-linecap="round" stroke-linejoin="round"/>
<defs>
<filter id="filter0_d_381:3329" x="0" y="0" width="87" height="87" filterUnits="userSpaceOnUse" color-interpolation-filters="sRGB">
<feFlood flood-opacity="0" result="BackgroundImageFix"/>
<feColorMatrix in="SourceAlpha" type="matrix" values="0 0 0 0 0 0 0 0 0 0 0 0 0 0 0 0 0 0 127 0" result="hardAlpha"/>
<feOffset dy="2"/>
<feGaussianBlur stdDeviation="3"/>
<feComposite in2="hardAlpha" operator="out"/>
<feColorMatrix type="matrix" values="0 0 0 0 0 0 0 0 0 0 0 0 0 0 0 0 0 0 0.25 0"/>
<feBlend mode="normal" in2="BackgroundImageFix" result="effect1_dropShadow_381:3329"/>
<feBlend mode="normal" in="SourceGraphic" in2="effect1_dropShadow_381:3329" result="shape"/>
</filter>
<linearGradient id="paint0_linear_381:3329" x1="12" y1="7" x2="80.25" y2="69.25" gradientUnits="userSpaceOnUse">
<stop stop-color="#FFD6DC"/>
<stop offset="0.487788" stop-color="#FFC0C9"/>
<stop offset="1" stop-color="#FFC0C9"/>
</linearGradient>
</defs>
</svg>
